<svg xmlns="http://www.w3.org/2000/svg" width="260" height="240" fill="none" >
    <path d="   M21 208 
                L33 238 
                H224 
                L235 208 
                H21 
                Z"
    fill="#5E4627"/>
    <rect x="27" y="235" width="202" height="6" fill="#000"/>
    <path d="   M3 161 
                L17 217 
                C16 223 40 235 78 237 
                C130 239 167 229 178 224 
                C194 223 229 221 241 216 
                C252 210 249 172 246 153 
                L205 115 
                H38 
                Z" 
    fill="#B9213C"/>
    <ellipse cx="27" cy="165" rx="27" ry="19" fill="#D3C41D"/>
    <ellipse cx="232" cy="162" rx="27" ry="19" fill="#D3C41D"/>
    <line x1="132" y1="168" x2="132" y2="234" stroke="#000"/>
    <ellipse cx="123" cy="88" rx="96" ry="81" fill="#E3CBA1"/>
    <circle cx="125" cy="176" r="2" fill="#000"/>
    <circle cx="125" cy="216" r="2" fill="#000"/>
    <circle cx="125" cy="195" r="2" fill="#000"/>
    <path d="   M118 14 
                C41 14 27 67 27 93 
                C45 81 91 56 127 56 
                C163 55 202 69 217 77 
                C218 55 194 13 118 14 
                Z" 
    fill="#D3C41D"/>
    <path d="   M118 7 
                C41 7 27 60 27 86 
                C45 74 91 49 127 49 
                C163 48 202 62 217 70 
                C218 48 194 6 118 7 
                Z"
    fill="#73BDA4"/>
    <ellipse cx="120" cy="10" rx="30" ry="10" fill="#D3C41D"/>
    <ellipse cx="100" cy="87" rx="23" ry="28" transform="rotate(25 100 87)" fill="#F1F2F1"/>
    <ellipse cx="149" cy="88" rx="23" ry="28" transform="rotate(-25 150 87)" fill="#F1F2F1"/>
    <circle cx="111" cy="85" r="2" fill="#000"/>
    <circle cx="141" cy="86" r="2" fill="#000"/>
    <path d="   M125 77 
                C125 78 124 81 124 82 
                C124 83 125 87 125 89"
    stroke="#000"/>
    <path d="   M49 132 
                C60 143 91 165 127 162 
                C163 158 192 136 202 125"
    stroke="#000" />
    <path d="   M139 133 
                C136 136 126 141 116 137"
    stroke="#000" stroke-width="3" stroke-linecap="round"/> 
    <path d="   M142 148 
                C139 151 129 156 119 152"
    stroke="#000"/>
</svg>
